<svg xmlns="http://www.w3.org/2000/svg" viewBox="0 0 1200 1200" width="128" height="128"><path d="M586.25 147.5c29.81 0 59.63.11 89.44-.04 17.74-.08 34.6 3.3 49.64 12.9 30.58 19.51 46.05 47.67 42.93 83.82-3.27 37.84-24.31 63.46-59.72 77.22-.63.24-1.27.5-1.92.57-4 .47-4.71 2.92-4.6 6.54.24 7.77.07 15.57.07 23.36 0 15.35.19 30.7-.08 46.05-.24 12.99 5.56 22.1 16.71 28.1 10.96 5.9 22.19 11.29 32.87 17.72 66.95 40.33 113.66 97.35 140.12 170.8 16.06 44.59 22.25 90.8 17.05 137.87-12.22 110.64-66.05 195.02-162.41 251.49-33.68 19.73-69.94 33.29-108.5 39.24-89.77 13.82-172.17-5.4-245.36-59.43-68.64-50.68-110.41-118.92-126.55-202.7-7.01-36.39-7.95-73.11-1.18-109.49 20.45-110 80.27-191.2 180.6-241.42 17.16-8.59 25.31-20.02 24.63-39.12-.74-20.44-.15-40.92-.17-61.39 0-5.95-.07-5.85-5.55-7.84-34.15-12.42-55.23-36.56-60.35-72.39-7.55-52.94 29.98-92.25 71.01-100.12 7.49-1.43 15.02-1.67 22.58-1.68 29.56-.1 59.15-.06 88.74-.06zm-.64 47.33c-31.37 0-62.73-.06-94.1.01-21.5.04-41.77 17.49-41.12 42.72.58 22.47 18.69 39.49 41.19 39.88 6.67.11 13.35 0 20.02.03 5.8.03 5.8.06 5.88 5.83.01.67 0 1.33 0 2v160.16c0 1.33-.08 2.67.01 4 .21 2.67-1 3.99-3.56 4.71-4.7 1.33-9.3 2.99-13.95 4.49-118.83 38.49-199.85 153.94-190.52 282.78 2.88 39.87 13.6 77.37 32.68 112.41 62.8 115.33 194.88 169.77 319.07 134.31 136.55-38.99 220.8-172.54 196.88-312.6-12.75-74.7-51.03-134.26-112.35-178.82-26.34-19.15-55.58-32.44-86.73-41.69-5.76-1.71-5.76-1.84-5.76-7.68-.01-23.58 0-47.15 0-70.74 0-31.15-.01-62.28.01-93.43 0-5.53.08-5.59 5.41-5.63 7.34-.06 14.68.15 22.03-.06 26.09-.72 45.25-26.88 38.2-52.02-5.14-18.37-21.26-30.62-40.55-30.66-30.9-.04-61.82 0-92.74 0z" fill="rgba(2, 192, 136, 1)"></path><path d="M408.78 656.81c57.26-.06 106.26 14.28 152.07 39.99 44.86 25.18 83.08 57.94 112.22 100.69 12.61 18.51 22.54 38.31 27.14 60.43 2.24 10.75 2.91 21.54 1.1 32.45-2.93 17.65-11.92 31.37-26.43 41.58-13.38 9.4-28.59 14.09-44.47 17.01-17.84 3.28-35.83 3.34-53.85 2.74-5.35-.18-5.4-.22-6.22-5.51-6.41-41.69-19.54-81.18-39.44-118.32-37.32-69.68-91.3-122.59-161.33-159.19-.6-.31-1.24-.54-1.77-.93-1.63-1.17-4.67-1-4.13-4.3.56-3.37 3.37-3.1 5.67-3.43 4.84-.71 9.68-1.46 14.56-1.81 9.76-.67 19.54-1.1 24.88-1.4z" fill="rgba(6, 232, 103, 1)"></path><path d="M737.94 811.66c-33.8-65.38-81.79-117.18-145.66-153.71-63.83-36.5-132.77-51.59-205.71-46.64-.92-1.86-.26-2.82.29-3.77 19.52-33.12 44.29-61.18 78.24-80.21 21-11.76 43.57-18.02 67.66-17.13 26.07.96 50.04 9.46 72.59 22.29 29.74 16.92 52.27 41.13 70.19 69.86 29.02 46.5 49.35 96.45 58.26 150.72 3.19 19.32 5.17 38.77 4.14 58.59z" fill="rgba(247, 65, 121, 1)"></path><path d="M522.48 942.68C420.65 916.1 350.51 815.44 356.2 715.81c16.2 3.24 66.73 43.41 93.22 74.6 37.43 44.08 61.66 94.54 73.06 152.27z" fill="rgba(250, 214, 2, 1)"></path><path d="M652.84 504.49c2.59-.89 4.81.47 7.05 1.28 63.16 22.75 108.46 64.83 135.74 126.11 14.73 33.08 20.62 67.95 18.54 104.04-1.92 33.28-10.55 64.8-26.35 94.26-.5.95-1.13 1.82-2.73 2.68 0-2.25-.06-4.51.01-6.76 1.35-50.71-5.94-100.15-22.21-148.19-21.33-62.98-55.48-118.04-102.31-165.24-2.63-2.66-5.73-4.91-7.62-8.26l-.12.08zm.11-.1c-.18-.08-.38-.14-.53-.26-.07-.06-.03-.36-.03-.36.46-.04.6.19.43.71.02.01.13-.09.13-.09z" fill="rgba(29, 214, 232, 1)"></path></svg>